<?xml version="1.0" encoding="iso-8859-1"?>
<!-- Generator: Adobe Illustrator 20.0.0, SVG Export Plug-In . SVG Version: 6.00 Build 0)  -->
<svg version="1.1" id="Layer_1" xmlns="http://www.w3.org/2000/svg" xmlns:xlink="http://www.w3.org/1999/xlink" x="0px" y="0px"
	 viewBox="0 0 141.73 141.73" style="enable-background:new 0 0 141.73 141.73;" xml:space="preserve">
<g>
	<path style="fill:none;stroke:#009FE3;stroke-miterlimit:10;" d="M44.799,85.392c-0.207-2.318-0.652-4.005-1.335-5.06
		c-0.414-0.579-0.849-0.827-1.304-0.745c-0.435,0.062-0.662,0.373-0.683,0.931c-0.104,1.718,1.045,4.398,3.446,8.04
		C44.945,87.379,44.903,86.324,44.799,85.392z"/>
	<path style="fill:none;stroke:#009FE3;stroke-miterlimit:10;" d="M70.968,72.634c-0.165-0.124-0.455-0.352-0.869-0.683
		c-0.165-0.124-0.279-0.196-0.341-0.217c-0.021-0.062-0.3-0.01-0.838,0.155c-0.849,0.228-1.335,0.797-1.459,1.707
		c-0.124,1.035,0.134,2.287,0.776,3.756c0.118,0.288,0.245,0.566,0.379,0.84c0.37,0.588,0.71,1.17,1.023,1.744
		c0.313,0.446,0.652,0.868,1.019,1.265c0.931,1.015,1.728,1.542,2.39,1.583c0.663,0.042,1.087-0.113,1.273-0.466
		c0.227-0.434,0.269-1.159,0.124-2.173c-0.124-0.91-0.383-1.893-0.776-2.949c-0.373-1.034-0.714-1.832-1.024-2.39
		c-0.062-0.103-0.114-0.196-0.155-0.279l-0.217-0.217c-0.476-0.6-0.848-1.097-1.118-1.49c-0.062-0.062-0.103-0.124-0.124-0.186
		C71.01,72.614,70.988,72.614,70.968,72.634z"/>
	<path style="fill:none;stroke:#009FE3;stroke-miterlimit:10;" d="M94.219,50.252c-0.103-0.062-0.196-0.134-0.279-0.217
		c-1.118-0.165-1.894-0.031-2.328,0.404c-0.497,0.497-0.59,1.397-0.279,2.701c0.352,1.47,1.035,2.815,2.049,4.036
		c0.993,1.242,1.997,1.935,3.011,2.08c0.786,0.125,1.366-0.249,1.738-1.118c0.393-0.931,0.497-1.965,0.31-3.104
		c-0.124-0.745-0.31-1.552-0.559-2.422c-0.497-0.289-1.014-0.62-1.552-0.993C94.985,50.728,94.281,50.274,94.219,50.252z"/>
	<path style="fill:none;stroke:#009FE3;stroke-miterlimit:10;" d="M89.78,39.294c-0.124-0.124-0.341-0.362-0.652-0.714
		c-0.31-0.351-0.548-0.61-0.714-0.776c-0.518-0.6-0.952-0.993-1.304-1.18c-0.497-0.331-0.828-0.414-0.993-0.248
		c-0.248,0.208-0.29,0.642-0.124,1.304c0.393,1.553,1.759,3.581,4.098,6.084c1.676,1.801,3.363,3.322,5.06,4.563
		c0.29,0.083,0.6,0.207,0.931,0.373c0.021,0.021,0.052,0.031,0.093,0.031c-1.594-2.752-3.673-5.846-6.24-9.282
		C89.873,39.387,89.822,39.335,89.78,39.294z"/>
	<path style="fill:none;stroke:#009FE3;stroke-miterlimit:10;" d="M102.26,41.312c-0.331-0.061-0.631,0-0.9,0.186
		c-0.269,0.186-0.434,0.445-0.497,0.776c-0.062,0.332,0,0.632,0.186,0.901c2.4,3.477,3.466,6.281,3.197,8.413
		c-0.041,0.331-0.124,0.559-0.248,0.683c-0.083,0.083-0.207,0.125-0.372,0.124c-0.621,0.042-1.521-0.217-2.701-0.776l-1.086-0.59
		c-1.428-4.16-4.067-9.096-7.916-14.808c-0.062-0.186-0.145-0.331-0.248-0.435c-0.165-0.165-0.419-0.45-0.761-0.854
		c-0.341-0.404-0.605-0.699-0.791-0.885c-0.745-0.827-1.428-1.407-2.049-1.738c-0.745-0.372-1.464-0.543-2.158-0.512
		c-0.693,0.031-1.298,0.285-1.816,0.76c-0.952,0.828-1.345,2.049-1.18,3.663c0.248,2.443,1.79,5.226,4.625,8.351
		c1.118,1.201,2.318,2.339,3.601,3.415c-0.476,0.187-0.88,0.445-1.211,0.776c-1.097,1.138-1.408,2.774-0.931,4.905
		c0.036,0.15,0.08,0.298,0.121,0.447c-0.056,0.228-0.046,0.462,0.034,0.702l0.869,2.111l0.093,0.341
		c0.021,0.021,0.041,0.052,0.062,0.093c0.02,0.042,0.031,0.083,0.031,0.124l0.217,0.28l0.062,0.062l0.342,0.714
		c0.621,1.449,1.055,2.753,1.304,3.911c0.186,0.849,0.279,1.418,0.279,1.708c-0.041,0.373-0.248,0.787-0.621,1.242
		c-0.248,0.29-0.486,0.455-0.714,0.497c-0.228,0.042-0.507-0.02-0.838-0.186c-0.745-0.331-1.738-1.138-2.98-2.421
		c-0.165-0.165-0.657-0.688-1.475-1.568c-0.817-0.879-1.412-1.506-1.785-1.878c-0.621-0.579-1.18-1.014-1.676-1.304
		c-0.724-0.434-1.407-0.6-2.049-0.497c-1.263,0.187-1.956,1.108-2.08,2.763c-0.062,0.849,0.062,1.946,0.373,3.291
		c-0.207-0.207-0.414-0.434-0.621-0.683c-0.207-0.248-0.476-0.383-0.807-0.403c-0.331-0.02-0.621,0.073-0.869,0.279
		c-0.248,0.208-0.383,0.476-0.403,0.807c-0.021,0.331,0.072,0.621,0.279,0.869c0.506,0.577,1.001,1.159,1.489,1.743
		c0.158,0.322,0.592,1.167,1.305,2.541c0.703,1.283,1.221,2.36,1.552,3.229c0.435,1.18,0.632,2.122,0.59,2.825
		c-0.042,0.663-0.321,1.149-0.838,1.459c-0.58,0.331-1.263,0.331-2.049,0c-0.663-0.331-1.407-0.91-2.235-1.738
		c-0.062-0.062-0.269-0.31-0.621-0.745c-0.331-0.372-0.652-0.755-0.962-1.149c-0.02-0.02-0.3-0.424-0.838-1.211l-0.124-0.186
		c-0.103-0.31-0.176-0.486-0.217-0.528c-0.166-0.331-0.352-0.579-0.559-0.745c-0.269-0.227-0.569-0.341-0.9-0.341
		c-0.041,0-0.073,0.011-0.093,0.031l-0.093-0.093c-0.31-0.227-0.59-0.403-0.838-0.528c-0.6-0.227-1.428-0.207-2.483,0.062
		c-1.821,0.538-2.866,1.77-3.135,3.694c-0.165,1.449,0.155,3.115,0.962,4.998c0.544,1.269,1.194,2.41,1.948,3.425
		c0.367,0.745,0.683,1.477,0.94,2.193c0.765,2.091,0.797,3.529,0.093,4.315c-0.207,0.249-0.486,0.383-0.838,0.403
		c-0.352,0.021-0.704-0.062-1.056-0.248c-0.476-0.227-1.055-0.807-1.738-1.738c-0.58-0.745-1.252-1.749-2.018-3.011
		c-0.207-0.331-0.507-0.838-0.9-1.521l-0.838-1.459c-0.29-0.455-0.518-0.786-0.683-0.993c-0.145-0.186-0.269-0.331-0.373-0.434
		c-0.248-0.248-0.517-0.393-0.807-0.435c-0.6-0.103-1.118,0.124-1.552,0.683c-0.145,0.145-0.227,0.249-0.248,0.31l-0.031,0.031
		c-0.911,0.787-1.904,1.511-2.98,2.173c-0.29,0.166-0.466,0.403-0.528,0.714c-0.062,0.31,0,0.6,0.186,0.869
		c0.062,0.104,0.145,0.207,0.248,0.311c0.021,0.063,0.052,0.114,0.093,0.155l0.869,1.366c0.186,0.27,0.31,0.456,0.373,0.559
		c0.062,0.104,0.119,0.223,0.171,0.357c0.051,0.135,0.161,0.378,0.326,0.729c0.087,0.185,0.181,0.38,0.279,0.582
		c-0.107,0.247-0.282,0.661-0.527,1.249c-0.145,0.352-0.29,0.58-0.435,0.683c-0.165,0.125-0.756,0.197-1.77,0.217
		c-0.662,0.001-1.169,0.094-1.521,0.279c-0.725,0.352-1.076,0.952-1.055,1.8c0.02,0.725,0.424,1.232,1.211,1.521
		c0.124,0.042,0.212,0.067,0.264,0.078c0.051,0.011,0.088,0.026,0.109,0.047c0.518,0.393,0.91,0.746,1.18,1.055
		c0.807,0.931,1.448,2.029,1.925,3.291c0.497,1.325,0.507,2.184,0.031,2.577c-0.083,0.083-0.227,0.083-0.434,0
		c-0.373-0.083-0.807-0.331-1.304-0.745c-0.352-0.269-1.221-1.138-2.608-2.608c-1.428-1.51-2.98-3.393-4.656-5.65
		c0.042-0.083,0.062-0.186,0.062-0.311c0.165-2.607,0.197-4.811,0.093-6.612c-0.165-2.98-0.745-5.215-1.738-6.705
		c-0.455-0.745-1.04-1.288-1.754-1.63s-1.433-0.439-2.158-0.295c-0.745,0.166-1.366,0.538-1.863,1.118
		c-0.497,0.58-0.776,1.314-0.838,2.204c-0.207,2.442,1.211,5.991,4.253,10.648c2.256,3.456,4.543,6.406,6.861,8.847
		c1.49,1.574,2.442,2.525,2.856,2.856c0.765,0.6,1.469,0.994,2.111,1.18c1.035,0.289,1.925,0.124,2.67-0.497
		c1.303-1.097,1.511-2.835,0.621-5.215c-0.559-1.51-1.335-2.845-2.328-4.005c-0.248-0.289-0.549-0.589-0.9-0.9
		c0.869-0.041,1.573-0.248,2.111-0.621c0.497-0.373,0.9-0.941,1.211-1.707c0.062-0.145,0.124-0.31,0.186-0.497l0.186-0.435
		c0.041-0.124,0.103-0.248,0.186-0.373c0.012-0.021,0.017-0.044,0.027-0.066c0.05-0.074,0.095-0.154,0.127-0.244
		c0.103-0.289,0.083-0.589-0.062-0.9c-0.165-0.414-0.331-0.807-0.497-1.18l-0.404-0.838c-0.062-0.145-0.124-0.269-0.186-0.372
		c-0.083-0.165-0.227-0.414-0.435-0.745l-0.559-0.807c0.766-0.517,1.511-1.097,2.235-1.738l0.186,0.311l0.838,1.397
		c0.414,0.663,0.714,1.17,0.9,1.521c0.807,1.346,1.531,2.422,2.173,3.229c0.91,1.2,1.738,1.998,2.483,2.39
		c0.745,0.394,1.568,0.565,2.468,0.512c0.9-0.052,1.65-0.419,2.251-1.102c1.058-1.19,1.341-2.851,0.854-4.979
		c0.391,0.158,0.779,0.26,1.163,0.291c1.718,0.145,2.918-0.414,3.601-1.676c0.496-0.91,0.631-2.121,0.404-3.632
		c-0.041-0.414-0.124-0.848-0.248-1.304c0.227,0.145,0.445,0.259,0.652,0.341c1.49,0.704,2.897,0.683,4.222-0.062
		c1.241-0.704,1.914-1.811,2.018-3.322c0.026-0.338,0.016-0.699-0.021-1.076l0.021,0.021l0.155,0.155
		c0.062,0.062,0.124,0.104,0.186,0.124c0.31,0.186,0.631,0.217,0.962,0.093c0.517-0.186,0.776-0.569,0.776-1.149
		c0-0.124-0.011-0.238-0.031-0.342c-0.041-0.124-0.103-0.227-0.186-0.31c-0.021-0.062-0.072-0.134-0.155-0.217
		c-0.662-0.993-1.356-1.997-2.08-3.011c-0.165-0.248-0.279-0.444-0.341-0.59c-0.186-0.351-0.476-1.055-0.869-2.111
		c-0.352-1.055-0.662-2.11-0.931-3.166c-0.31-1.262-0.424-2.245-0.341-2.949c0.02-0.269,0.052-0.465,0.093-0.59
		c0.103,0.021,0.259,0.094,0.466,0.217c0.31,0.186,0.714,0.507,1.211,0.962c0.393,0.393,0.983,1.004,1.769,1.832
		c0.786,0.828,1.262,1.346,1.428,1.552c1.469,1.511,2.701,2.494,3.694,2.949c0.786,0.373,1.531,0.497,2.235,0.373
		c0.807-0.145,1.51-0.579,2.111-1.304c0.703-0.869,1.096-1.739,1.18-2.608c0.041-0.538-0.052-1.334-0.279-2.39
		c-0.074-0.309-0.158-0.626-0.253-0.951c0.581,0.31,1.172,0.515,1.774,0.61c1.055,0.145,1.971-0.047,2.747-0.575
		c0.776-0.528,1.288-1.185,1.537-1.971c0.58-1.365,0.745-2.835,0.497-4.408l-0.124-0.559c1.2,0.497,2.235,0.725,3.104,0.683
		c0.765-0.062,1.397-0.341,1.894-0.838c0.497-0.497,0.807-1.201,0.931-2.111c0.352-2.711-0.838-6.053-3.57-10.027
		C102.85,41.54,102.591,41.374,102.26,41.312z M41.478,80.518c0.021-0.558,0.248-0.869,0.683-0.931
		c0.455-0.082,0.89,0.166,1.304,0.745c0.683,1.056,1.128,2.743,1.335,5.06c0.103,0.932,0.145,1.987,0.124,3.166
		C42.523,84.916,41.374,82.236,41.478,80.518z M71.154,72.82c0.269,0.393,0.642,0.89,1.118,1.49l0.217,0.217
		c0.041,0.083,0.093,0.177,0.155,0.279c0.31,0.559,0.652,1.356,1.024,2.39c0.393,1.056,0.652,2.039,0.776,2.949
		c0.145,1.014,0.103,1.739-0.124,2.173c-0.186,0.352-0.61,0.507-1.273,0.466c-0.662-0.041-1.459-0.569-2.39-1.583
		c-0.367-0.397-0.706-0.819-1.019-1.265c-0.313-0.575-0.653-1.156-1.023-1.744c-0.133-0.274-0.261-0.552-0.379-0.84
		c-0.642-1.469-0.9-2.721-0.776-3.756c0.124-0.91,0.61-1.479,1.459-1.707c0.538-0.165,0.817-0.217,0.838-0.155
		c0.062,0.021,0.176,0.094,0.341,0.217c0.414,0.331,0.704,0.559,0.869,0.683c0.02-0.02,0.042-0.02,0.062,0
		C71.051,72.697,71.092,72.758,71.154,72.82z M98.441,55.033c0.186,1.139,0.083,2.174-0.31,3.104
		c-0.373,0.869-0.952,1.242-1.738,1.118c-1.014-0.145-2.018-0.838-3.011-2.08c-1.014-1.221-1.697-2.566-2.049-4.036
		c-0.31-1.304-0.217-2.204,0.279-2.701c0.434-0.434,1.211-0.569,2.328-0.404c0.083,0.083,0.176,0.156,0.279,0.217
		c0.062,0.021,0.765,0.476,2.111,1.366c0.538,0.373,1.055,0.704,1.552,0.993C98.131,53.481,98.317,54.288,98.441,55.033z
		 M96.175,48.731c-0.041,0.001-0.072-0.01-0.093-0.031c-0.331-0.166-0.642-0.29-0.931-0.373c-1.697-1.241-3.384-2.763-5.06-4.563
		c-2.339-2.504-3.704-4.532-4.098-6.084c-0.165-0.662-0.124-1.096,0.124-1.304c0.165-0.165,0.497-0.082,0.993,0.248
		c0.352,0.187,0.786,0.58,1.304,1.18c0.166,0.166,0.404,0.425,0.714,0.776c0.311,0.352,0.528,0.59,0.652,0.714
		c0.042,0.042,0.093,0.093,0.155,0.155C92.502,42.885,94.581,45.979,96.175,48.731z"/>
</g>
</svg>
