<?xml version="1.0" encoding="iso-8859-1"?>
<!-- Generator: Adobe Illustrator 20.0.0, SVG Export Plug-In . SVG Version: 6.00 Build 0)  -->
<svg version="1.1" id="Layer_1" xmlns="http://www.w3.org/2000/svg" xmlns:xlink="http://www.w3.org/1999/xlink" x="0px" y="0px"
	 viewBox="0 0 141.73 141.73" style="enable-background:new 0 0 141.73 141.73;" xml:space="preserve">
<path style="fill:none;stroke:#009FE3;stroke-linecap:round;stroke-linejoin:round;stroke-miterlimit:10;" d="M120.829,17.209
	H85.763c-1.047,0-1.993,0.444-2.666,1.15c-0.02,0.019-0.041,0.035-0.061,0.055L18.291,83.158c-1.443,1.443-1.443,3.804,0,5.247
	l35.033,35.033c1.443,1.443,3.804,1.443,5.247,0l64.744-64.744c0.02-0.02,0.036-0.041,0.055-0.061c0.706-0.673,1.15-1.62,1.15-2.666
	V20.901C124.521,18.87,122.86,17.209,120.829,17.209z M118.337,27.608c-2.469,0-4.471-2.002-4.471-4.471
	c0-2.469,2.002-4.471,4.471-4.471c2.469,0,4.471,2.002,4.471,4.471C122.807,25.607,120.806,27.608,118.337,27.608z"/>
</svg>
